<svg t="1735251705348" class="icon" viewBox="0 0 1024 1024" version="1.1" xmlns="http://www.w3.org/2000/svg" p-id="1620" width="24" height="24" fill="currentColor">
  <path d="M210.304 813.696Q335.274667 938.666667 512 938.666667q136.32 0 152.917333-183.210667 5.290667-58.282667 13.354667-67.413333 4.053333-4.565333 70.058667-18.048Q938.666667 631.168 938.666667 512q0-176.725333-124.970667-301.696Q688.725333 85.333333 512 85.333333 335.274667 85.333333 210.304 210.304 85.333333 335.274667 85.333333 512q0 176.725333 124.970667 301.696zM614.4 631.466667c-62.549333 70.570667-0.682667 221.866667-102.4 221.866666a341.333333 341.333333 0 1 1 341.333333-341.333333c0 86.784-185.6 59.221333-238.933333 119.466667z m-96.768-378.368Q486.4 284.330667 486.4 328.533333q0 44.16 31.232 75.434667 31.232 31.232 75.434667 31.232 44.16 0 75.434666-31.232 31.232-31.232 31.232-75.434667t-31.232-75.434666Q637.269333 221.866667 593.066667 221.866667t-75.434667 31.232zM256 405.333333q0-44.202667 31.232-75.434666T362.666667 298.666667q44.202667 0 75.434666 31.232T469.333333 405.333333q0 44.202667-31.232 75.434667T362.666667 512q-44.202667 0-75.434667-31.232T256 405.333333z m321.962667-61.696Q571.733333 337.365333 571.733333 328.533333t6.229334-15.104q6.272-6.229333 15.104-6.229333t15.104 6.229333q6.229333 6.272 6.229333 15.104t-6.229333 15.104q-6.272 6.229333-15.104 6.229334t-15.104-6.229334zM341.333333 405.333333q0 8.832 6.229334 15.104 6.272 6.229333 15.104 6.229334t15.104-6.229334Q384 414.165333 384 405.333333t-6.229333-15.104Q371.498667 384 362.666667 384t-15.104 6.229333Q341.333333 396.501333 341.333333 405.333333z m-76.8 238.933334q0-44.202667 31.232-75.434667T371.2 537.6q44.202667 0 75.434667 31.232T477.866667 644.266667q0 44.202667-31.232 75.434666T371.2 750.933333q-44.202667 0-75.434667-31.232T264.533333 644.266667z m85.333334 0q0 8.832 6.229333 15.104 6.272 6.229333 15.104 6.229333t15.104-6.229333q6.229333-6.272 6.229333-15.104t-6.229333-15.104Q380.032 622.933333 371.2 622.933333t-15.104 6.229334q-6.229333 6.272-6.229333 15.104z" p-id="1621" stroke="black" stroke-width="1"></path>
</svg>